<svg width="1792" height="1791" viewBox="0 0 1792 1791" fill="none" xmlns="http://www.w3.org/2000/svg">
<path fill-rule="evenodd" clip-rule="evenodd" d="M895.99 1690.53C1335.06 1690.53 1690.99 1334.59 1690.99 895.527C1690.99 456.461 1335.06 100.527 895.99 100.527C456.924 100.527 100.99 456.461 100.99 895.527C100.99 1334.59 456.924 1690.53 895.99 1690.53ZM895.99 1790.53C1390.29 1790.53 1790.99 1389.82 1790.99 895.527C1790.99 401.232 1390.29 0.527344 895.99 0.527344C401.695 0.527344 0.990234 401.232 0.990234 895.527C0.990234 1389.82 401.695 1790.53 895.99 1790.53Z" fill="black"/>
<path d="M1589.81 1097.65C1478.59 1099.21 942.995 1016.5 941.434 905.23C939.872 793.955 1472.94 696.253 1584.15 694.692C1695.37 693.132 1786.79 782.073 1788.35 893.347C1789.91 1004.62 1701.02 1096.09 1589.81 1097.65Z" fill="black"/>
<path d="M1523.13 551.803C1445.6 631.546 1008.39 951.787 928.6 874.208C848.813 796.629 1156.66 350.608 1234.2 270.864C1311.74 191.121 1439.27 189.367 1519.06 266.946C1598.85 344.525 1600.67 472.06 1523.13 551.803Z" fill="black"/>
<path d="M1089.79 214.371C1091.35 325.584 1008.64 861.183 897.363 862.744C786.088 864.305 688.386 331.238 686.825 220.024C685.265 108.811 774.206 17.3887 885.48 15.8275C996.755 14.2663 1088.23 103.157 1089.79 214.371Z" fill="#1E87F0"/>
<path d="M1251.74 1530.03C1172 1452.49 851.758 1015.29 929.337 935.499C1006.92 855.712 1452.94 1163.56 1532.68 1241.1C1612.42 1318.63 1614.18 1446.17 1536.6 1525.96C1459.02 1605.74 1331.49 1607.57 1251.74 1530.03Z" fill="black"/>
</svg>
