<svg width="1791" height="1791" viewBox="0 0 1791 1791" fill="none" xmlns="http://www.w3.org/2000/svg">
<path fill-rule="evenodd" clip-rule="evenodd" d="M895.834 1691C1334.9 1691 1690.83 1335.07 1690.83 896C1690.83 456.934 1334.9 101 895.834 101C456.768 101 100.834 456.934 100.834 896C100.834 1335.07 456.768 1691 895.834 1691ZM895.834 1791C1390.13 1791 1790.83 1390.29 1790.83 896C1790.83 401.705 1390.13 1 895.834 1C401.539 1 0.833984 401.705 0.833984 896C0.833984 1390.29 401.539 1791 895.834 1791Z" fill="black"/>
<path d="M1096.83 201.39C1096.83 312.614 1006.62 847 895.334 847C784.049 847 693.834 312.614 693.834 201.39C693.834 90.1653 784.049 0 895.334 0C1006.62 0 1096.83 90.1653 1096.83 201.39Z" fill="#1E87F0"/>
<path d="M693.834 1589.61C693.834 1478.39 784.049 944 895.334 944C1006.62 944 1096.83 1478.39 1096.83 1589.61C1096.83 1700.83 1006.62 1791 895.334 1791C784.049 1791 693.834 1700.83 693.834 1589.61Z" fill="black"/>
<path d="M1240.57 1530.6C1161.92 1451.95 847.842 1010.29 926.532 931.604C1005.22 852.913 1446.88 1166.99 1525.53 1245.64C1604.18 1324.28 1604.14 1451.83 1525.45 1530.52C1446.76 1609.21 1319.21 1609.25 1240.57 1530.6Z" fill="black"/>
<path d="M266.239 1245.51C344.887 1166.87 786.546 852.791 865.236 931.481C943.927 1010.17 629.851 1451.83 551.203 1530.48C472.555 1609.13 345.007 1609.09 266.317 1530.4C187.626 1451.71 187.591 1324.16 266.239 1245.51Z" fill="black"/>
</svg>
