<svg width="1791" height="1790" viewBox="0 0 1791 1790" fill="none" xmlns="http://www.w3.org/2000/svg">
<path fill-rule="evenodd" clip-rule="evenodd" d="M895.834 1690C1334.9 1690 1690.83 1334.07 1690.83 895C1690.83 455.934 1334.9 100 895.834 100C456.768 100 100.834 455.934 100.834 895C100.834 1334.07 456.768 1690 895.834 1690ZM895.834 1790C1390.13 1790 1790.83 1389.29 1790.83 895C1790.83 400.705 1390.13 0 895.834 0C401.539 0 0.833984 400.705 0.833984 895C0.833984 1389.29 401.539 1790 895.834 1790Z" fill="black"/>
<path d="M1096.83 201.39C1096.83 312.614 1006.84 847 895.834 847C784.825 847 694.834 312.614 694.834 201.39C694.834 90.1653 784.825 0 895.834 0C1006.84 0 1096.83 90.1653 1096.83 201.39Z" fill="#1E87F0"/>
<path d="M694.834 1588.61C694.834 1477.39 784.825 943 895.834 943C1006.84 943 1096.83 1477.39 1096.83 1588.61C1096.83 1699.83 1006.84 1790 895.834 1790C784.825 1790 694.834 1699.83 694.834 1588.61Z" fill="black"/>
</svg>
