<svg width="1791" height="1791" viewBox="0 0 1791 1791" fill="none" xmlns="http://www.w3.org/2000/svg">
<path fill-rule="evenodd" clip-rule="evenodd" d="M895.834 1691C1334.9 1691 1690.83 1335.07 1690.83 896C1690.83 456.934 1334.9 101 895.834 101C456.768 101 100.834 456.934 100.834 896C100.834 1335.07 456.768 1691 895.834 1691ZM895.834 1791C1390.13 1791 1790.83 1390.29 1790.83 896C1790.83 401.705 1390.13 1 895.834 1C401.539 1 0.833984 401.705 0.833984 896C0.833984 1390.29 401.539 1791 895.834 1791Z" fill="black"/>
<path d="M1096.83 201.39C1096.83 312.614 1006.62 847 895.334 847C784.049 847 693.834 312.614 693.834 201.39C693.834 90.1653 784.049 0 895.334 0C1006.62 0 1096.83 90.1653 1096.83 201.39Z" fill="#1E87F0"/>
<path d="M1073.64 1592.61C1018.03 1496.29 828.962 988.393 925.338 932.75C1021.71 877.107 1367.03 1294.79 1422.65 1391.11C1478.26 1487.44 1445.21 1610.63 1348.84 1666.27C1252.46 1721.92 1129.25 1688.94 1073.64 1592.61Z" fill="black"/>
<path d="M370.529 1391.11C426.141 1294.79 771.462 877.107 867.838 932.75C964.214 988.393 775.149 1496.29 719.537 1592.61C663.924 1688.94 540.714 1721.92 444.338 1666.27C347.962 1610.63 314.916 1487.44 370.529 1391.11Z" fill="black"/>
</svg>
