<svg width="1792" height="1791" viewBox="0 0 1792 1791" fill="none" xmlns="http://www.w3.org/2000/svg">
<path fill-rule="evenodd" clip-rule="evenodd" d="M895.834 1691C1334.9 1691 1690.83 1335.07 1690.83 896C1690.83 456.934 1334.9 101 895.834 101C456.768 101 100.834 456.934 100.834 896C100.834 1335.07 456.768 1691 895.834 1691ZM895.834 1791C1390.13 1791 1790.83 1390.29 1790.83 896C1790.83 401.705 1390.13 1 895.834 1C401.539 1 0.833984 401.705 0.833984 896C0.833984 1390.29 401.539 1791 895.834 1791Z" fill="black"/>
<path d="M1096.83 201.39C1096.83 312.614 1006.62 847 895.334 847C784.049 847 693.834 312.614 693.834 201.39C693.834 90.1653 784.049 0 895.334 0C1006.62 0 1096.83 90.1653 1096.83 201.39Z" fill="#1E87F0"/>
<path d="M693.834 1589.61C693.834 1478.39 784.049 944 895.334 944C1006.62 944 1096.83 1478.39 1096.83 1589.61C1096.83 1700.83 1006.62 1791 895.334 1791C784.049 1791 693.834 1700.83 693.834 1589.61Z" fill="black"/>
<path d="M1590.44 1095C1479.22 1095 944.834 1004.79 944.834 893.5C944.834 782.215 1479.22 692 1590.44 692C1701.67 692 1791.83 782.215 1791.83 893.5C1791.83 1004.79 1701.67 1095 1590.44 1095Z" fill="black"/>
<path d="M202.224 692C313.448 692 847.834 782.215 847.834 893.5C847.834 1004.79 313.448 1095 202.224 1095C90.9993 1095 0.833985 1004.79 0.833987 893.5C0.833988 782.215 90.9993 692 202.224 692Z" fill="black"/>
</svg>
