<svg width="1791" height="1791" viewBox="0 0 1791 1791" fill="none" xmlns="http://www.w3.org/2000/svg">
<path fill-rule="evenodd" clip-rule="evenodd" d="M895.834 1691C1334.9 1691 1690.83 1335.07 1690.83 896C1690.83 456.934 1334.9 101 895.834 101C456.768 101 100.834 456.934 100.834 896C100.834 1335.07 456.768 1691 895.834 1691ZM895.834 1791C1390.13 1791 1790.83 1390.29 1790.83 896C1790.83 401.705 1390.13 1 895.834 1C401.539 1 0.833984 401.705 0.833984 896C0.833984 1390.29 401.539 1791 895.834 1791Z" fill="black"/>
<path d="M1096.83 201.39C1096.83 312.614 1006.62 847 895.334 847C784.049 847 693.834 312.614 693.834 201.39C693.834 90.1653 784.049 0 895.334 0C1006.62 0 1096.83 90.1653 1096.83 201.39Z" fill="#1E87F0"/>
<path d="M1346.69 1456.43C1255.58 1392.63 869.579 1012.22 933.409 921.06C997.24 829.901 1486.73 1062.51 1577.84 1126.31C1668.95 1190.1 1691.06 1315.72 1627.23 1406.88C1563.4 1498.04 1437.8 1520.22 1346.69 1456.43Z" fill="black"/>
<path d="M213.802 1126.31C304.912 1062.51 794.4 829.899 858.23 921.059C922.061 1012.22 536.063 1392.63 444.953 1456.42C353.843 1520.22 228.239 1498.04 164.409 1406.88C100.578 1315.72 122.692 1190.1 213.802 1126.31Z" fill="black"/>
</svg>
